<svg xmlns="http://www.w3.org/2000/svg" width="71" height="128" viewBox="0 0 981 1756">
  <path d="M744,0c50.788-.682,76.246,22.5,91,58,6.85,16.482,8.562,46.335,1,64-13.378,31.252-36.9,48.228-73,57-14.98,3.64-32-3.154-41-7-27.225-11.63-46.4-28.955-56-58-1.822-5.513-.481-9.653-2-16-2.942-12.292,1.011-31.612,5-41,9.106-21.428,26.763-40.762,48-50a125.977,125.977,0,0,1,15-5C736.05,0.831,741.016,2.093,744,0ZM716,268c33.749-.29,52.409,17.675,64,40,5.309,10.226,8.744,28.625,3,42-5.1,11.88-14.184,20.713-24,28-5.929,4.4-14.422,14.841-19,21-4.033,5.425-10.944,9.529-15,15-25.792,34.789-47.5,71.4-63,117-8.419,24.776-12.28,53.674-15,83-0.973,10.5-3.409,32.188,4,35,7.1,4.727,20.7.671,30,3l60,9c81.36,22.444,167.243,37.344,211,97l4,3c9.972,13.991,16.449,28.336,22,47,2.3,7.732,4.554,19.566,1,28-11.426,27.115-58.2,22.328-85,12-32.77-12.628-63.815-29.47-96-43l-49-15-12-2c-15.185-4.766-52.578-14.142-70-11-5.09,10.678,6.03,50.328,10,64q0.5,5,1,10c3.471,12.373,5.624,27.389,9,40v6c7.837,29.314,12.374,71.209,13,106,2.625,145.93-52.739,235.74-147,285-46.022,24.05-121.484,32.69-176,9-51.44-22.35-86.5-61.52-103-119-1.743-6.07-.439-10.52-2-17-7.662-31.8,4.513-66.34,14-88,5.157-11.78,10.285-23.03,20-30,6.55-4.7,15.135-7.79,24-10,10.237-2.55,21.836,1.62,28,4,20.272,7.82,32.584,18.38,41,38,2.811,6.55,7.815,18.54,5,30-1.457,5.93-2.615,12.53-5,18-2.872,6.59-11.037,16.35-8,28,6.288,24.11,25.855,26.64,50,33,6.628,1.75,20.017,4.17,29,2,8.271-2,17.46-2.81,25-6,42.346-17.94,61.484-54,75-101l6-39v-16c2.8-12.11.744-42.671-2-54q-1-12.5-2-25c-6.434-25.334-9.027-53.027-16-77-1.538-5.288-.449-8.716-2-14-4.08-13.9-5.664-29.184-10-44-2.429-8.3-5.249-18.281-6-28-2.8-1.788-2.787-3.286-7-4-2.154-1.218-10.715,1.114-14,2l-12,1c-8.45,2.348-18.909,4.424-27,7-16.222,5.164-32.006,6.7-47,13-33.334,14.016-64.927,28.264-93,47-77.758,51.9-140.473,118.149-180,208-6.522,14.83-11.794,30.69-17,46-2.632,7.74-2.532,14.09-5,22-4.6,14.74-5.989,32.87-10,49q-0.5,10.995-1,22c-2.455,10.54-2.56,38.5,0,49,1.785,7.32.421,15.68,2,22l3,27c8.924,32.57,15.459,63.63,28,92,37.278,84.33,94.681,142.56,170,189,8.553,5.27,17.56,7.82,27,12,24.655,10.91,51.9,21.76,79,31,13.7,4.67,26.659,5.77,41,10,55.406,16.32,157.751,26.06,217,6,34.191-11.58,68.959-25.67,96-45,3.228-2.31,5.834-6.65,9-9,14.3-10.61,26.533-23.53,39-36,5.171-5.17,10.088-11.67,16-16,13.876-10.15,40.756-25.38,65-15,19.685,8.43,34.68,33.82,25,62-5.329,15.51-18.845,32.54-29,44-39.379,44.46-77.635,80.1-137,105-30.055,12.61-64.881,16.14-99,25-16.508,4.29-35.6,1.98-52,6H610c-6.218,1.46-16.572-.73-24,1-7.485,1.75-22.519,1.82-30,0-8.029-1.95-19.162.66-26-1H516c-11.936-2.94-25.531-.81-38-4-9.628-2.46-20.855-2.11-31-5-21.345-6.08-44.4-10.3-64-17-26.409-9.02-49.9-16.32-74-27-14.165-6.28-29.132-15.04-42-23-7.043-4.36-14.057-6.61-21-11-20.145-12.75-38.959-27.93-58-42l-5-6c-5.227-3.88-10.454-7.46-15-12l-8-9c-9.64-7.17-17.848-16.37-25-26l-7-6c-5.695-7.66-12.527-14.49-18-22-14.041-19.26-27.337-39.53-40-60-1.618-2.62-1.389-5.38-3-8-14.164-23.03-25.034-49.79-36-76-2.175-5.2-2-9.72-4-15-16.782-44.35-25.983-96.59-26-157,0-16.82-1.428-35.98,2-50q0.5-10.005,1-20c3.06-12.07,2.561-25.49,6-38,6.1-22.19,9.689-44.72,17-66C85.925,882.487,205.6,764.239,366,694c30.866-13.516,64.719-20.965,99-31,12.1-3.542,25.277-3.97,37-7,6.914-1.787,13.574-.8,19-3,0.683-1.293,2.576-2.8,3-4q0.5-23.5,1-47c2.3-9.385.492-21.055,3-31,5.538-21.958,6.016-45.205,13-66,14.99-44.631,30.039-85.715,53-122,10.286-16.254,22.6-31.574,34-47,3.474-4.7,9.524-8.325,13-13a174.739,174.739,0,0,1,35-35l5-6a87.513,87.513,0,0,1,23-12C707.631,268.8,713.176,269.985,716,268Z"/>
</svg>
